# xmcd
#
# Track frame offsets: 
#        150
#        71660
#        133655
#        174752
#        193126
#        241655
#        276691
#        308683
#        322459
#
# Disc length: 4683 seconds
#
# Revision: 0
# Processed by: cddbd v1.5.2PL0 Copyright (c) Steve Scherf et al.
# Submitted via: ExactAudioCopy v1.0b4
#
DISCID=88124909
DTITLE=Climax Blues Band - Live Rare And Raw [disk 2]
DYEAR=2014
DGENRE=Blues Rock
TTITLE0=Flight
TTITLE1=So Many Roads
TTITLE2=Country Hat
TTITLE3=Shake Your Love
TTITLE4=Going To New York
TTITLE5=Let's Work Together
TTITLE6=One More Time-Stormy Monday
TTITLE7=Together And Free
TTITLE8=Amerita Sense Of Direction
EXTD=
EXTT0=
EXTT1=
EXTT2=
EXTT3=
EXTT4=
EXTT5=
EXTT6=
EXTT7=
EXTT8=
PLAYORDER=
